<svg width="257" height="38" viewBox="0 0 257 38" fill="none" xmlns="http://www.w3.org/2000/svg">
<path d="M177.966 32.25V18.6587H180.935L185.044 28.4741L189.182 18.6587H192.114V32.25H189.794V25.5332L189.869 21.6831L189.525 22.7036L186.046 31.3223H183.894L180.489 22.6572L180.146 21.6367L180.229 25.5703V32.25H177.966Z" fill="url(#paint0_linear_1176_40541)"/>
<path d="M200.243 29.105C200.917 29.9647 201.913 30.3945 203.231 30.3945C204.548 30.3945 205.541 29.9678 206.209 29.1143C206.883 28.2546 207.22 27.0423 207.22 25.4775C207.22 23.8942 206.883 22.6665 206.209 21.7944C205.541 20.9224 204.551 20.4863 203.24 20.4863C201.923 20.4863 200.924 20.9255 200.243 21.8037C199.569 22.6758 199.232 23.9004 199.232 25.4775C199.232 27.0361 199.569 28.2453 200.243 29.105ZM203.221 32.4448C201.174 32.4448 199.557 31.8263 198.369 30.5894C197.188 29.3462 196.597 27.633 196.597 25.4497C196.597 23.2541 197.191 21.5409 198.379 20.3101C199.566 19.0793 201.183 18.4639 203.231 18.4639C205.278 18.4639 206.892 19.0824 208.073 20.3193C209.255 21.5501 209.845 23.2633 209.845 25.459C209.845 27.6299 209.252 29.3369 208.064 30.5801C206.877 31.8232 205.262 32.4448 203.221 32.4448Z" fill="url(#paint1_linear_1176_40541)"/>
<path d="M214.32 32.25V18.6587H218.559C220.359 18.6587 221.701 18.9215 222.586 19.4473C223.47 19.973 223.912 20.8481 223.912 22.0728C223.912 22.2707 223.9 22.4655 223.875 22.6572C223.851 22.849 223.795 23.0685 223.708 23.3159C223.622 23.5571 223.507 23.7767 223.365 23.9746C223.223 24.1725 223.025 24.3674 222.771 24.5591C222.518 24.7446 222.221 24.89 221.881 24.9951C222.722 25.1992 223.365 25.592 223.81 26.1733C224.256 26.7485 224.478 27.4598 224.478 28.3071C224.478 29.5874 224.024 30.5646 223.115 31.2388C222.212 31.9129 220.959 32.25 219.357 32.25H214.32ZM216.834 30.4316H219.014C220.944 30.4316 221.909 29.6771 221.909 28.168C221.909 27.4072 221.667 26.8599 221.185 26.5259C220.702 26.1919 219.957 26.0249 218.949 26.0249H216.834V30.4316ZM216.834 24.2715H218.986C220.65 24.2715 221.482 23.6375 221.482 22.3696C221.482 21.6584 221.241 21.1698 220.758 20.9038C220.282 20.6379 219.521 20.5049 218.476 20.5049H216.834V24.2715Z" fill="url(#paint2_linear_1176_40541)"/>
<path d="M228.851 32.25V18.6587H231.365V32.25H228.851Z" fill="url(#paint3_linear_1176_40541)"/>
<path d="M236.461 32.25V18.6587H238.975V30.2461H244.662L244.588 32.25H236.461Z" fill="url(#paint4_linear_1176_40541)"/>
<path d="M248.496 32.25V18.6587H256.734L256.632 20.6533H251.01V24.1602H256.354V26.1548H251.01V30.2461H256.836L256.753 32.25H248.496Z" fill="url(#paint5_linear_1176_40541)"/>
<path fill-rule="evenodd" clip-rule="evenodd" d="M7.1936 25.6594H19.5584L21.919 31.7429H26.7525L15.6242 5.5H11.1279L-0.000366211 31.7429H4.72069L7.1936 25.6594ZM13.3755 10.3945L17.9842 21.846H8.76672L13.3755 10.3945Z" fill="url(#paint6_linear_1176_40541)"/>
<path d="M68.7292 5.5H73.036V31.749H68.7292V5.5Z" fill="url(#paint7_linear_1176_40541)"/>
<path d="M108.353 5.5L97.6601 31.749H93.2044L82.5118 5.5H87.4134L95.5434 25.7833L103.785 5.5H108.353Z" fill="url(#paint8_linear_1176_40541)"/>
<path fill-rule="evenodd" clip-rule="evenodd" d="M119.519 25.6633H131.884L134.357 31.7468H139.079L127.95 5.50391H123.453L112.325 31.7468H117.046L119.519 25.6633ZM125.701 10.3984L130.31 21.8499H121.092L125.701 10.3984Z" fill="url(#paint9_linear_1176_40541)"/>
<path d="M147.763 5.5H152.29V27.573H164.99V31.749H147.763V5.5Z" fill="url(#paint10_linear_1176_40541)"/>
<path fill-rule="evenodd" clip-rule="evenodd" d="M46.9497 24.062L52.008 31.7469H56.9539L51.1087 23.1161C52.7949 22.4067 54.1438 21.3426 55.043 19.9239C55.9423 18.5051 56.3919 16.85 56.3919 14.84C56.3919 12.9484 56.0547 11.2932 55.1553 9.87448C54.2561 8.45571 53.0197 7.39164 51.446 6.68226C49.8723 5.85469 47.9614 5.5 45.8256 5.5H35.5966V31.7469H40.3176V24.062H46.9497ZM45.7139 9.64258C47.7371 9.64258 49.3108 9.99727 50.3225 10.9432C51.3342 11.8889 51.8962 13.1895 51.8962 14.8446C51.8962 16.4999 51.3342 17.8003 50.3225 18.7462C49.3108 19.6921 47.7371 20.165 45.7139 20.165H40.3183V9.64258H45.7139Z" fill="url(#paint11_linear_1176_40541)"/>
<defs>
<linearGradient id="paint0_linear_1176_40541" x1="128.418" y1="5.5" x2="128.418" y2="32.4448" gradientUnits="userSpaceOnUse">
<stop stop-color="#F5F4F5" stop-opacity="0.96"/>
<stop offset="1" stop-color="#F5F4F5" stop-opacity="0.67"/>
</linearGradient>
<linearGradient id="paint1_linear_1176_40541" x1="128.418" y1="5.5" x2="128.418" y2="32.4448" gradientUnits="userSpaceOnUse">
<stop stop-color="#F5F4F5" stop-opacity="0.96"/>
<stop offset="1" stop-color="#F5F4F5" stop-opacity="0.67"/>
</linearGradient>
<linearGradient id="paint2_linear_1176_40541" x1="128.418" y1="5.5" x2="128.418" y2="32.4448" gradientUnits="userSpaceOnUse">
<stop stop-color="#F5F4F5" stop-opacity="0.96"/>
<stop offset="1" stop-color="#F5F4F5" stop-opacity="0.67"/>
</linearGradient>
<linearGradient id="paint3_linear_1176_40541" x1="128.418" y1="5.5" x2="128.418" y2="32.4448" gradientUnits="userSpaceOnUse">
<stop stop-color="#F5F4F5" stop-opacity="0.96"/>
<stop offset="1" stop-color="#F5F4F5" stop-opacity="0.67"/>
</linearGradient>
<linearGradient id="paint4_linear_1176_40541" x1="128.418" y1="5.5" x2="128.418" y2="32.4448" gradientUnits="userSpaceOnUse">
<stop stop-color="#F5F4F5" stop-opacity="0.96"/>
<stop offset="1" stop-color="#F5F4F5" stop-opacity="0.67"/>
</linearGradient>
<linearGradient id="paint5_linear_1176_40541" x1="128.418" y1="5.5" x2="128.418" y2="32.4448" gradientUnits="userSpaceOnUse">
<stop stop-color="#F5F4F5" stop-opacity="0.96"/>
<stop offset="1" stop-color="#F5F4F5" stop-opacity="0.67"/>
</linearGradient>
<linearGradient id="paint6_linear_1176_40541" x1="128.418" y1="5.5" x2="128.418" y2="32.4448" gradientUnits="userSpaceOnUse">
<stop stop-color="#F5F4F5" stop-opacity="0.96"/>
<stop offset="1" stop-color="#F5F4F5" stop-opacity="0.67"/>
</linearGradient>
<linearGradient id="paint7_linear_1176_40541" x1="128.418" y1="5.5" x2="128.418" y2="32.4448" gradientUnits="userSpaceOnUse">
<stop stop-color="#F5F4F5" stop-opacity="0.96"/>
<stop offset="1" stop-color="#F5F4F5" stop-opacity="0.67"/>
</linearGradient>
<linearGradient id="paint8_linear_1176_40541" x1="128.418" y1="5.5" x2="128.418" y2="32.4448" gradientUnits="userSpaceOnUse">
<stop stop-color="#F5F4F5" stop-opacity="0.96"/>
<stop offset="1" stop-color="#F5F4F5" stop-opacity="0.67"/>
</linearGradient>
<linearGradient id="paint9_linear_1176_40541" x1="128.418" y1="5.5" x2="128.418" y2="32.4448" gradientUnits="userSpaceOnUse">
<stop stop-color="#F5F4F5" stop-opacity="0.96"/>
<stop offset="1" stop-color="#F5F4F5" stop-opacity="0.67"/>
</linearGradient>
<linearGradient id="paint10_linear_1176_40541" x1="128.418" y1="5.5" x2="128.418" y2="32.4448" gradientUnits="userSpaceOnUse">
<stop stop-color="#F5F4F5" stop-opacity="0.96"/>
<stop offset="1" stop-color="#F5F4F5" stop-opacity="0.67"/>
</linearGradient>
<linearGradient id="paint11_linear_1176_40541" x1="128.418" y1="5.5" x2="128.418" y2="32.4448" gradientUnits="userSpaceOnUse">
<stop stop-color="#F5F4F5" stop-opacity="0.96"/>
<stop offset="1" stop-color="#F5F4F5" stop-opacity="0.67"/>
</linearGradient>
</defs>
</svg>
