<svg width="158" height="38" viewBox="0 0 158 38" fill="none" xmlns="http://www.w3.org/2000/svg">
<path d="M31.2681 5.09829H5.67441L7.51817 0.0429688H33.1119L31.2681 5.09829ZM30.3463 7.62596H4.741L2.89724 12.6813H28.491L30.3463 7.62596ZM27.5806 15.186H1.97536L0.131592 20.2413H25.7023L27.5806 15.186Z" fill="url(#paint0_linear_1033_34380)"/>
<path d="M133.474 15.1371C133.245 15.1371 133.035 15.1261 132.843 15.1039C132.651 15.0818 132.463 15.0523 132.279 15.0154C132.102 14.9712 131.925 14.9196 131.748 14.8606C131.578 14.8016 131.398 14.7352 131.206 14.6615V13.3011C131.737 13.537 132.179 13.6919 132.533 13.7656C132.887 13.832 133.175 13.8652 133.396 13.8652C133.691 13.8652 133.938 13.832 134.137 13.7656C134.336 13.6919 134.491 13.6034 134.602 13.5002C134.72 13.3969 134.801 13.2863 134.845 13.1683C134.897 13.0504 134.922 12.9398 134.922 12.8365C134.922 12.5416 134.856 12.3167 134.723 12.1618C134.598 11.9996 134.451 11.8816 134.281 11.8079C134.111 11.7342 133.942 11.6899 133.772 11.6752C133.61 11.6604 133.492 11.653 133.418 11.653H132.478V10.3811H133.418C133.816 10.3811 134.122 10.2926 134.336 10.1156C134.55 9.93866 134.657 9.69533 134.657 9.38564C134.657 9.28241 134.635 9.17917 134.591 9.07594C134.554 8.96534 134.487 8.86948 134.392 8.78837C134.296 8.69988 134.167 8.62983 134.004 8.57822C133.85 8.51923 133.65 8.48973 133.407 8.48973C133.016 8.48973 132.673 8.53398 132.379 8.62246C132.091 8.71094 131.789 8.82892 131.472 8.9764V7.60489C131.663 7.53853 131.848 7.48323 132.025 7.43898C132.202 7.38737 132.379 7.34681 132.555 7.31732C132.74 7.28045 132.928 7.25464 133.12 7.23989C133.311 7.22515 133.518 7.21777 133.739 7.21777C134.181 7.21777 134.569 7.2657 134.9 7.36156C135.232 7.45742 135.505 7.59383 135.719 7.7708C135.94 7.94039 136.102 8.14686 136.205 8.39019C136.316 8.62615 136.371 8.88423 136.371 9.16443C136.371 9.56261 136.264 9.92392 136.051 10.2484C135.844 10.5728 135.523 10.794 135.088 10.912V10.9452C135.295 10.982 135.49 11.0484 135.675 11.1443C135.859 11.2327 136.021 11.3544 136.161 11.5093C136.309 11.6567 136.423 11.8374 136.504 12.0512C136.593 12.2651 136.637 12.5158 136.637 12.8033C136.637 13.172 136.574 13.4854 136.449 13.7435C136.331 14.0016 136.176 14.2191 135.984 14.3961C135.8 14.5657 135.586 14.7021 135.343 14.8053C135.107 14.9012 134.871 14.9749 134.635 15.0265C134.406 15.0708 134.189 15.1002 133.982 15.115C133.776 15.1297 133.606 15.1371 133.474 15.1371Z" fill="url(#paint1_linear_1033_34380)"/>
<path fill-rule="evenodd" clip-rule="evenodd" d="M121.372 8.67776V7.30626H116.417V15.0486H119.248C119.801 15.0486 120.255 14.9712 120.608 14.8164C120.97 14.6541 121.25 14.4587 121.449 14.2302C121.656 13.9942 121.799 13.7472 121.88 13.4891C121.962 13.231 122.002 12.9987 122.002 12.7923C122.002 12.5416 121.965 12.2724 121.892 11.9849C121.818 11.6899 121.678 11.4171 121.471 11.1664C121.272 10.9157 120.992 10.7092 120.631 10.547C120.277 10.3774 119.816 10.2926 119.248 10.2926H117.987V8.67776H121.372ZM118.96 13.832H117.987V11.5093H118.96C119.403 11.5093 119.742 11.6051 119.978 11.7968C120.221 11.9812 120.343 12.2724 120.343 12.6706C120.343 13.0688 120.221 13.3637 119.978 13.5555C119.742 13.7398 119.403 13.832 118.96 13.832Z" fill="url(#paint2_linear_1033_34380)"/>
<path d="M124.868 11.288V7.30626H123.297V15.0486H125.177L127.909 10.359L128.44 9.18655H128.473L128.44 11.0558V15.0486H130.011V7.30626H128.13L125.421 12.0402L124.868 13.1683H124.834L124.868 11.288Z" fill="url(#paint3_linear_1033_34380)"/>
<path d="M139.428 10.4253V7.30626H137.857V15.0486H139.428V11.6973H142.569V15.0486H144.14V7.30626H142.569V10.4253H139.428Z" fill="url(#paint4_linear_1033_34380)"/>
<path d="M150.312 7.30626V8.67776H147.259V10.4253H150.035V11.6973H147.259V13.6771H150.312V15.0486H145.688V7.30626H150.312Z" fill="url(#paint5_linear_1033_34380)"/>
<path d="M152.657 14.2412C153.041 14.5509 153.472 14.7795 153.951 14.927C154.431 15.0671 154.91 15.1371 155.389 15.1371C155.699 15.1371 156.023 15.1113 156.363 15.0597C156.702 15.0081 157.045 14.9233 157.391 14.8053V13.4449C157.2 13.5333 156.964 13.6218 156.683 13.7103C156.411 13.7914 156.075 13.832 155.677 13.832C155.33 13.832 154.995 13.784 154.67 13.6882C154.353 13.585 154.073 13.4301 153.83 13.2236C153.586 13.0098 153.391 12.737 153.244 12.4052C153.096 12.066 153.022 11.6641 153.022 11.1996C153.022 10.8014 153.085 10.4401 153.21 10.1156C153.336 9.78382 153.516 9.49993 153.752 9.26397C153.988 9.02801 154.276 8.84736 154.615 8.72201C154.962 8.58928 155.352 8.52292 155.787 8.52292C156.119 8.52292 156.411 8.55241 156.661 8.6114C156.919 8.67039 157.163 8.74413 157.391 8.83261V7.48323C157.096 7.38737 156.812 7.321 156.54 7.28414C156.274 7.23989 155.987 7.21777 155.677 7.21777C155.065 7.21777 154.497 7.30257 153.974 7.47217C153.45 7.63439 152.993 7.88509 152.602 8.22428C152.219 8.5561 151.916 8.97271 151.695 9.47412C151.474 9.97553 151.363 10.5581 151.363 11.2217C151.363 11.9296 151.481 12.5305 151.717 13.0246C151.961 13.5186 152.274 13.9241 152.657 14.2412Z" fill="url(#paint6_linear_1033_34380)"/>
<path d="M117.987 20.0129V26.4501H121.062V27.7552H116.417V20.0129H117.987Z" fill="url(#paint7_linear_1033_34380)"/>
<path d="M123.625 20.0129H122.055V27.7552H123.625V20.0129Z" fill="url(#paint8_linear_1033_34380)"/>
<path d="M130.607 20.0129V21.3844H128.373V27.7552H126.802V21.3844H124.568V20.0129H130.607Z" fill="url(#paint9_linear_1033_34380)"/>
<path d="M136.173 21.3844V20.0129H131.549V27.7552H136.173V26.3837H133.12V24.4039H135.896V23.1319H133.12V21.3844H136.173Z" fill="url(#paint10_linear_1033_34380)"/>
<path fill-rule="evenodd" clip-rule="evenodd" d="M86.1953 7.62625V37.9812L96.0364 37.9697C100.093 37.9697 102.086 37.602 103.988 36.2922C105.166 35.4366 106.11 34.3011 106.736 32.9888C107.362 31.6766 107.649 30.2292 107.571 28.7782C107.647 27.4307 107.416 26.0837 106.895 24.838C106.374 23.5924 105.577 22.4805 104.564 21.5858C103.146 20.3795 101.095 19.4373 97.1427 19.4373H92.2452V12.716H104.264L106.004 7.62625H86.1953ZM96.8546 32.8914H92.2452V24.4582H96.8085C97.8277 24.3766 98.8452 24.6353 99.7009 25.1935C100.229 25.593 100.65 26.1171 100.926 26.7186C101.201 27.3201 101.323 27.9804 101.28 28.6403C101.332 29.6773 101.013 30.6991 100.381 31.5241C99.9506 32.0229 99.4039 32.4086 98.789 32.647C98.174 32.8854 97.5097 32.9694 96.8546 32.8914Z" fill="url(#paint11_linear_1033_34380)"/>
<path d="M68.6565 12.7046V37.9812L74.764 37.9927V12.716H82.5539L84.2939 7.62625H59.8525V12.7046H68.6565Z" fill="url(#paint12_linear_1033_34380)"/>
<path fill-rule="evenodd" clip-rule="evenodd" d="M54.0101 21.9305V21.8271L54.0677 21.8041C54.9661 21.4271 55.7807 20.8765 56.4646 20.1841C57.1086 19.5356 57.6134 18.7631 57.9483 17.9137C58.2831 17.0643 58.4409 16.1559 58.4121 15.2437C58.4121 11.4177 56.0959 8.99349 52.5697 8.05136C51.0579 7.7127 49.5087 7.56982 47.9603 7.62625H38.2114V37.9697H49.1702C50.6581 38.0404 52.1484 37.8972 53.5953 37.5446C57.2252 36.6484 59.4377 33.6497 59.4377 29.502C59.5058 28.3793 59.3075 27.2565 58.859 26.2244C58.4106 25.1924 57.7245 24.2803 56.8564 23.562C55.9976 22.8752 55.0375 22.3249 54.0101 21.9305ZM47.7183 19.782H44.2612V12.6012H47.5224C48.2965 12.5636 49.0721 12.6332 49.8271 12.808C50.558 12.9904 51.1964 13.4339 51.6212 14.0544C52.046 14.6748 52.2277 15.4292 52.1318 16.1743C52.1963 16.9243 52.0034 17.6738 51.5846 18.3C51.1659 18.9263 50.5462 19.3921 49.8271 19.6212C49.1356 19.776 48.4253 19.8302 47.7183 19.782ZM44.2612 32.9948V25.0326L48.306 25.0097C50.1958 25.0097 51.3021 25.228 52.2009 26.3769C52.743 27.1333 53.0259 28.044 53.0076 28.9735C53.0396 29.5553 52.9427 30.1369 52.7236 30.6771C52.5045 31.2173 52.1686 31.7026 51.74 32.0986C50.8098 32.8061 49.6412 33.1273 48.4788 32.9948H44.2612Z" fill="url(#paint13_linear_1033_34380)"/>
<defs>
<linearGradient id="paint0_linear_1033_34380" x1="78.7614" y1="0.0429687" x2="78.7614" y2="37.9927" gradientUnits="userSpaceOnUse">
<stop stop-color="#F5F4F5" stop-opacity="0.96"/>
<stop offset="1" stop-color="#F5F4F5" stop-opacity="0.67"/>
</linearGradient>
<linearGradient id="paint1_linear_1033_34380" x1="78.7614" y1="0.0429687" x2="78.7614" y2="37.9927" gradientUnits="userSpaceOnUse">
<stop stop-color="#F5F4F5" stop-opacity="0.96"/>
<stop offset="1" stop-color="#F5F4F5" stop-opacity="0.67"/>
</linearGradient>
<linearGradient id="paint2_linear_1033_34380" x1="78.7614" y1="0.0429687" x2="78.7614" y2="37.9927" gradientUnits="userSpaceOnUse">
<stop stop-color="#F5F4F5" stop-opacity="0.96"/>
<stop offset="1" stop-color="#F5F4F5" stop-opacity="0.67"/>
</linearGradient>
<linearGradient id="paint3_linear_1033_34380" x1="78.7614" y1="0.0429687" x2="78.7614" y2="37.9927" gradientUnits="userSpaceOnUse">
<stop stop-color="#F5F4F5" stop-opacity="0.96"/>
<stop offset="1" stop-color="#F5F4F5" stop-opacity="0.67"/>
</linearGradient>
<linearGradient id="paint4_linear_1033_34380" x1="78.7614" y1="0.0429687" x2="78.7614" y2="37.9927" gradientUnits="userSpaceOnUse">
<stop stop-color="#F5F4F5" stop-opacity="0.96"/>
<stop offset="1" stop-color="#F5F4F5" stop-opacity="0.67"/>
</linearGradient>
<linearGradient id="paint5_linear_1033_34380" x1="78.7614" y1="0.0429687" x2="78.7614" y2="37.9927" gradientUnits="userSpaceOnUse">
<stop stop-color="#F5F4F5" stop-opacity="0.96"/>
<stop offset="1" stop-color="#F5F4F5" stop-opacity="0.67"/>
</linearGradient>
<linearGradient id="paint6_linear_1033_34380" x1="78.7614" y1="0.0429687" x2="78.7614" y2="37.9927" gradientUnits="userSpaceOnUse">
<stop stop-color="#F5F4F5" stop-opacity="0.96"/>
<stop offset="1" stop-color="#F5F4F5" stop-opacity="0.67"/>
</linearGradient>
<linearGradient id="paint7_linear_1033_34380" x1="78.7614" y1="0.0429687" x2="78.7614" y2="37.9927" gradientUnits="userSpaceOnUse">
<stop stop-color="#F5F4F5" stop-opacity="0.96"/>
<stop offset="1" stop-color="#F5F4F5" stop-opacity="0.67"/>
</linearGradient>
<linearGradient id="paint8_linear_1033_34380" x1="78.7614" y1="0.0429687" x2="78.7614" y2="37.9927" gradientUnits="userSpaceOnUse">
<stop stop-color="#F5F4F5" stop-opacity="0.96"/>
<stop offset="1" stop-color="#F5F4F5" stop-opacity="0.67"/>
</linearGradient>
<linearGradient id="paint9_linear_1033_34380" x1="78.7614" y1="0.0429687" x2="78.7614" y2="37.9927" gradientUnits="userSpaceOnUse">
<stop stop-color="#F5F4F5" stop-opacity="0.96"/>
<stop offset="1" stop-color="#F5F4F5" stop-opacity="0.67"/>
</linearGradient>
<linearGradient id="paint10_linear_1033_34380" x1="78.7614" y1="0.0429687" x2="78.7614" y2="37.9927" gradientUnits="userSpaceOnUse">
<stop stop-color="#F5F4F5" stop-opacity="0.96"/>
<stop offset="1" stop-color="#F5F4F5" stop-opacity="0.67"/>
</linearGradient>
<linearGradient id="paint11_linear_1033_34380" x1="78.7614" y1="0.0429687" x2="78.7614" y2="37.9927" gradientUnits="userSpaceOnUse">
<stop stop-color="#F5F4F5" stop-opacity="0.96"/>
<stop offset="1" stop-color="#F5F4F5" stop-opacity="0.67"/>
</linearGradient>
<linearGradient id="paint12_linear_1033_34380" x1="78.7614" y1="0.0429687" x2="78.7614" y2="37.9927" gradientUnits="userSpaceOnUse">
<stop stop-color="#F5F4F5" stop-opacity="0.96"/>
<stop offset="1" stop-color="#F5F4F5" stop-opacity="0.67"/>
</linearGradient>
<linearGradient id="paint13_linear_1033_34380" x1="78.7614" y1="0.0429687" x2="78.7614" y2="37.9927" gradientUnits="userSpaceOnUse">
<stop stop-color="#F5F4F5" stop-opacity="0.96"/>
<stop offset="1" stop-color="#F5F4F5" stop-opacity="0.67"/>
</linearGradient>
</defs>
</svg>
