<svg width="251" height="38" viewBox="0 0 251 38" fill="none" xmlns="http://www.w3.org/2000/svg">
<path fill-rule="evenodd" clip-rule="evenodd" d="M7.1936 25.9094H19.5584L21.919 31.9929H26.7525L15.6242 5.75H11.1279L-0.000366211 31.9929H4.72069L7.1936 25.9094ZM13.3755 10.6445L17.9842 22.096H8.76672L13.3755 10.6445Z" fill="url(#paint0_linear_1032_34314)"/>
<path d="M97.7292 5.75H102.036V31.999H97.7292V5.75Z" fill="url(#paint1_linear_1032_34314)"/>
<path d="M137.353 5.75L126.66 31.999H122.204L111.512 5.75H116.413L124.543 26.0333L132.785 5.75H137.353Z" fill="url(#paint2_linear_1032_34314)"/>
<path fill-rule="evenodd" clip-rule="evenodd" d="M148.519 25.9133H160.884L163.357 31.9968H168.079L156.95 5.75391H152.453L141.325 31.9968H146.046L148.519 25.9133ZM154.701 10.6484L159.31 22.0999H150.092L154.701 10.6484Z" fill="url(#paint3_linear_1032_34314)"/>
<path d="M176.763 5.75H181.29V27.823H193.99V31.999H176.763V5.75Z" fill="url(#paint4_linear_1032_34314)"/>
<path fill-rule="evenodd" clip-rule="evenodd" d="M78.2707 24.312L83.329 31.9969H88.2749L82.4297 23.3661C84.1159 22.6567 85.4648 21.5926 86.364 20.1739C87.2633 18.7551 87.7129 17.1 87.7129 15.09C87.7129 13.1984 87.3757 11.5432 86.4763 10.1245C85.5771 8.70571 84.3407 7.64164 82.767 6.93226C81.1933 6.10469 79.2824 5.75 77.1466 5.75H66.9175V31.9969H71.6386V24.312H78.2707ZM77.035 9.89258C79.0582 9.89258 80.6319 10.2473 81.6436 11.1932C82.6553 12.1389 83.2173 13.4395 83.2173 15.0946C83.2173 16.7499 82.6553 18.0503 81.6436 18.9962C80.6319 19.9421 79.0582 20.415 77.035 20.415H71.6393V9.89258H77.035Z" fill="url(#paint5_linear_1032_34314)"/>
<path fill-rule="evenodd" clip-rule="evenodd" d="M46.9497 24.312L52.008 31.9969H56.9539L51.1087 23.3661C52.7949 22.6567 54.1438 21.5926 55.043 20.1739C55.9423 18.7551 56.3919 17.1 56.3919 15.09C56.3919 13.1984 56.0547 11.5432 55.1553 10.1245C54.2561 8.70571 53.0197 7.64164 51.446 6.93226C49.8723 6.10469 47.9614 5.75 45.8256 5.75H35.5966V31.9969H40.3176V24.312H46.9497ZM45.7139 9.89258C47.7371 9.89258 49.3108 10.2473 50.3225 11.1932C51.3342 12.1389 51.8962 13.4395 51.8962 15.0946C51.8962 16.7499 51.3342 18.0503 50.3225 18.9962C49.3108 19.9421 47.7371 20.415 45.7139 20.415H40.3183V9.89258H45.7139Z" fill="url(#paint6_linear_1032_34314)"/>
<path d="M209.285 32.25L205.593 18.6587H208.098L210.732 29.2349L213.831 18.7236H216.234L219.175 29.272L221.865 18.6587H224.37L220.566 32.25H217.959L215.056 22.2954L211.874 32.25H209.285Z" fill="url(#paint7_linear_1032_34314)"/>
<path d="M227.907 32.25V18.6587H236.146L236.044 20.6533H230.422V24.1602H235.765V26.1548H230.422V30.2461H236.248L236.164 32.25H227.907Z" fill="url(#paint8_linear_1032_34314)"/>
<path d="M240.685 32.25V18.6587H244.925C246.724 18.6587 248.067 18.9215 248.951 19.4473C249.835 19.973 250.278 20.8481 250.278 22.0728C250.278 22.2707 250.265 22.4655 250.241 22.6572C250.216 22.849 250.16 23.0685 250.074 23.3159C249.987 23.5571 249.873 23.7767 249.73 23.9746C249.588 24.1725 249.39 24.3674 249.137 24.5591C248.883 24.7446 248.586 24.89 248.246 24.9951C249.087 25.1992 249.73 25.592 250.176 26.1733C250.621 26.7485 250.844 27.4598 250.844 28.3071C250.844 29.5874 250.389 30.5646 249.48 31.2388C248.577 31.9129 247.324 32.25 245.722 32.25H240.685ZM243.199 30.4316H245.379C247.309 30.4316 248.274 29.6771 248.274 28.168C248.274 27.4072 248.033 26.8599 247.55 26.5259C247.068 26.1919 246.322 26.0249 245.314 26.0249H243.199V30.4316ZM243.199 24.2715H245.351C247.015 24.2715 247.847 23.6375 247.847 22.3696C247.847 21.6584 247.606 21.1698 247.123 20.9038C246.647 20.6379 245.886 20.5049 244.841 20.5049H243.199V24.2715Z" fill="url(#paint9_linear_1032_34314)"/>
<defs>
<linearGradient id="paint0_linear_1032_34314" x1="125.422" y1="5.75" x2="125.422" y2="32.25" gradientUnits="userSpaceOnUse">
<stop stop-color="#F5F4F5" stop-opacity="0.96"/>
<stop offset="1" stop-color="#F5F4F5" stop-opacity="0.67"/>
</linearGradient>
<linearGradient id="paint1_linear_1032_34314" x1="125.422" y1="5.75" x2="125.422" y2="32.25" gradientUnits="userSpaceOnUse">
<stop stop-color="#F5F4F5" stop-opacity="0.96"/>
<stop offset="1" stop-color="#F5F4F5" stop-opacity="0.67"/>
</linearGradient>
<linearGradient id="paint2_linear_1032_34314" x1="125.422" y1="5.75" x2="125.422" y2="32.25" gradientUnits="userSpaceOnUse">
<stop stop-color="#F5F4F5" stop-opacity="0.96"/>
<stop offset="1" stop-color="#F5F4F5" stop-opacity="0.67"/>
</linearGradient>
<linearGradient id="paint3_linear_1032_34314" x1="125.422" y1="5.75" x2="125.422" y2="32.25" gradientUnits="userSpaceOnUse">
<stop stop-color="#F5F4F5" stop-opacity="0.96"/>
<stop offset="1" stop-color="#F5F4F5" stop-opacity="0.67"/>
</linearGradient>
<linearGradient id="paint4_linear_1032_34314" x1="125.422" y1="5.75" x2="125.422" y2="32.25" gradientUnits="userSpaceOnUse">
<stop stop-color="#F5F4F5" stop-opacity="0.96"/>
<stop offset="1" stop-color="#F5F4F5" stop-opacity="0.67"/>
</linearGradient>
<linearGradient id="paint5_linear_1032_34314" x1="125.422" y1="5.75" x2="125.422" y2="32.25" gradientUnits="userSpaceOnUse">
<stop stop-color="#F5F4F5" stop-opacity="0.96"/>
<stop offset="1" stop-color="#F5F4F5" stop-opacity="0.67"/>
</linearGradient>
<linearGradient id="paint6_linear_1032_34314" x1="125.422" y1="5.75" x2="125.422" y2="32.25" gradientUnits="userSpaceOnUse">
<stop stop-color="#F5F4F5" stop-opacity="0.96"/>
<stop offset="1" stop-color="#F5F4F5" stop-opacity="0.67"/>
</linearGradient>
<linearGradient id="paint7_linear_1032_34314" x1="229" y1="12.25" x2="229" y2="36.25" gradientUnits="userSpaceOnUse">
<stop stop-color="#F5F4F5" stop-opacity="0.96"/>
<stop offset="1" stop-color="#F5F4F5" stop-opacity="0.67"/>
</linearGradient>
<linearGradient id="paint8_linear_1032_34314" x1="229" y1="12.25" x2="229" y2="36.25" gradientUnits="userSpaceOnUse">
<stop stop-color="#F5F4F5" stop-opacity="0.96"/>
<stop offset="1" stop-color="#F5F4F5" stop-opacity="0.67"/>
</linearGradient>
<linearGradient id="paint9_linear_1032_34314" x1="229" y1="12.25" x2="229" y2="36.25" gradientUnits="userSpaceOnUse">
<stop stop-color="#F5F4F5" stop-opacity="0.96"/>
<stop offset="1" stop-color="#F5F4F5" stop-opacity="0.67"/>
</linearGradient>
</defs>
</svg>
