<svg width="19" height="19" viewBox="0 0 19 19" fill="none" xmlns="http://www.w3.org/2000/svg">
<path d="M11.9922 2.57275C11.9922 2.89307 11.9336 3.31885 11.8164 3.8501C11.707 4.37354 11.5664 4.99072 11.3945 5.70166C11.2305 6.37354 11.043 7.21338 10.832 8.22119C10.6211 9.22119 10.3984 10.4595 10.1641 11.936H9.26172C9.02734 10.4438 8.80469 9.20166 8.59375 8.20947C8.38281 7.21729 8.19531 6.38525 8.03125 5.71338C7.88281 5.09619 7.74609 4.49463 7.62109 3.90869C7.49609 3.31494 7.43359 2.86963 7.43359 2.57275C7.43359 1.97119 7.65625 1.45947 8.10156 1.0376C8.54688 0.60791 9.08203 0.393066 9.70703 0.393066C10.3242 0.393066 10.8594 0.60791 11.3125 1.0376C11.7656 1.45947 11.9922 1.97119 11.9922 2.57275ZM11.9688 15.522C11.9688 16.1157 11.7422 16.6274 11.2891 17.0571C10.8438 17.479 10.3203 17.6899 9.71875 17.6899C9.10938 17.6899 8.57812 17.479 8.125 17.0571C7.67969 16.6274 7.45703 16.1157 7.45703 15.522C7.45703 14.9282 7.67969 14.4165 8.125 13.9868C8.57812 13.5493 9.10938 13.3306 9.71875 13.3306C10.3203 13.3306 10.8438 13.5493 11.2891 13.9868C11.7422 14.4165 11.9688 14.9282 11.9688 15.522Z" fill="#ED4760"/>
</svg>
