<svg width="166" height="42" viewBox="0 0 166 42" fill="none" xmlns="http://www.w3.org/2000/svg">
<path d="M0 19.2C0 12.4794 0 9.11906 1.30792 6.55211C2.4584 4.29417 4.29417 2.4584 6.55211 1.30792C9.11906 0 12.4794 0 19.2 0H146.8C153.521 0 156.881 0 159.448 1.30792C161.706 2.4584 163.542 4.29417 164.692 6.55211C166 9.11906 166 12.4794 166 19.2V22.8C166 29.5206 166 32.8809 164.692 35.4479C163.542 37.7058 161.706 39.5416 159.448 40.6921C156.881 42 153.521 42 146.8 42H19.2C12.4794 42 9.11906 42 6.55211 40.6921C4.29417 39.5416 2.4584 37.7058 1.30792 35.4479C0 32.8809 0 29.5206 0 22.8V19.2Z" fill="url(#paint0_linear_1032_34336)" fill-opacity="0.2"/>
<path fill-rule="evenodd" clip-rule="evenodd" d="M146.8 0.5H19.2C15.8314 0.5 13.3351 0.500389 11.3591 0.66183C9.38904 0.822794 7.98035 1.14136 6.77911 1.75343C4.61525 2.85597 2.85597 4.61525 1.75343 6.77911C1.14136 7.98035 0.822794 9.38904 0.66183 11.3591C0.500389 13.3351 0.5 15.8314 0.5 19.2V22.8C0.5 26.1686 0.500389 28.6649 0.66183 30.6409C0.822794 32.611 1.14136 34.0197 1.75343 35.2209C2.85597 37.3848 4.61525 39.144 6.77911 40.2466C7.98035 40.8586 9.38903 41.1772 11.3591 41.3382C13.3351 41.4996 15.8314 41.5 19.2 41.5H146.8C150.169 41.5 152.665 41.4996 154.641 41.3382C156.611 41.1772 158.02 40.8586 159.221 40.2466C161.385 39.144 163.144 37.3848 164.247 35.2209C164.859 34.0197 165.177 32.611 165.338 30.6409C165.5 28.6649 165.5 26.1686 165.5 22.8V19.2C165.5 15.8314 165.5 13.3351 165.338 11.3591C165.177 9.38904 164.859 7.98035 164.247 6.77911C163.144 4.61525 161.385 2.85597 159.221 1.75343C158.02 1.14136 156.611 0.822794 154.641 0.66183C152.665 0.500389 150.169 0.5 146.8 0.5ZM1.30792 6.55211C0 9.11905 0 12.4794 0 19.2V22.8C0 29.5206 0 32.8809 1.30792 35.4479C2.4584 37.7058 4.29417 39.5416 6.55211 40.6921C9.11905 42 12.4794 42 19.2 42H146.8C153.521 42 156.881 42 159.448 40.6921C161.706 39.5416 163.542 37.7058 164.692 35.4479C166 32.8809 166 29.5206 166 22.8V19.2C166 12.4794 166 9.11905 164.692 6.55211C163.542 4.29417 161.706 2.4584 159.448 1.30792C156.881 0 153.521 0 146.8 0H19.2C12.4794 0 9.11905 0 6.55211 1.30792C4.29417 2.4584 2.4584 4.29417 1.30792 6.55211Z" fill="url(#paint1_radial_1032_34336)"/>
<path d="M31.0078 27H27.6504C26.9062 25.834 26.2324 24.8262 25.6289 23.9766C25.0312 23.127 24.3809 22.251 23.6777 21.3486H22.4033V25.3037C22.4033 25.5088 22.4355 25.6904 22.5 25.8486C22.5645 26.001 22.7021 26.1182 22.9131 26.2002C23.0186 26.2412 23.2031 26.2793 23.4668 26.3145C23.7305 26.3496 23.9531 26.3701 24.1348 26.376V27H18.8613V26.376C19.002 26.3643 19.2041 26.3438 19.4678 26.3145C19.7373 26.2852 19.9248 26.2471 20.0303 26.2002C20.2061 26.124 20.332 26.0127 20.4082 25.8662C20.4902 25.7197 20.5312 25.5322 20.5312 25.3037V16.2861C20.5312 16.0811 20.502 15.8994 20.4434 15.7412C20.3848 15.583 20.2471 15.4629 20.0303 15.3809C19.8838 15.3281 19.6934 15.2812 19.459 15.2402C19.2246 15.1934 19.0254 15.1641 18.8613 15.1523V14.5283H24.6182C25.1455 14.5283 25.6406 14.584 26.1035 14.6953C26.5664 14.8008 26.9854 14.9736 27.3604 15.2139C27.7236 15.4482 28.0137 15.7559 28.2305 16.1367C28.4473 16.5117 28.5557 16.9658 28.5557 17.499C28.5557 17.9795 28.4824 18.4043 28.3359 18.7734C28.1895 19.1426 27.9727 19.4619 27.6855 19.7314C27.4219 19.9834 27.1055 20.2031 26.7363 20.3906C26.3672 20.5723 25.96 20.7275 25.5146 20.8564C26.1299 21.6709 26.6396 22.3564 27.0439 22.9131C27.4541 23.4697 27.9551 24.1465 28.5469 24.9434C28.8047 25.2949 29.0361 25.5557 29.2412 25.7256C29.4521 25.8896 29.6602 26.0244 29.8652 26.1299C30.0176 26.2061 30.208 26.2646 30.4365 26.3057C30.665 26.3467 30.8555 26.3701 31.0078 26.376V27ZM26.3848 17.7012C26.3848 16.9453 26.168 16.3477 25.7344 15.9082C25.3008 15.4629 24.6885 15.2402 23.8975 15.2402H22.4033V20.5928H23.5547C24.3633 20.5928 25.0371 20.335 25.5762 19.8193C26.1152 19.2979 26.3848 18.5918 26.3848 17.7012Z" fill="#BE8FED"/>
<path d="M39.1507 24.9609C38.7874 25.6523 38.3011 26.2031 37.6917 26.6133C37.0823 27.0234 36.3821 27.2285 35.5911 27.2285C34.8939 27.2285 34.2816 27.1055 33.7542 26.8594C33.2327 26.6133 32.8021 26.2793 32.4622 25.8574C32.1224 25.4355 31.8675 24.9434 31.6976 24.3809C31.5335 23.8184 31.4515 23.2236 31.4515 22.5967C31.4515 22.0342 31.5394 21.4834 31.7152 20.9443C31.8968 20.3994 32.1605 19.9102 32.5062 19.4766C32.8402 19.0605 33.2532 18.7266 33.7454 18.4746C34.2435 18.2168 34.8001 18.0879 35.4154 18.0879C36.0482 18.0879 36.5902 18.1875 37.0413 18.3867C37.4925 18.5859 37.8587 18.8584 38.14 19.2041C38.4095 19.5322 38.6087 19.9189 38.7376 20.3643C38.8724 20.8096 38.9398 21.293 38.9398 21.8145V22.3945H33.2005C33.2005 22.9629 33.2532 23.4785 33.3587 23.9414C33.47 24.4043 33.6429 24.8115 33.8773 25.1631C34.1058 25.5029 34.4046 25.7725 34.7738 25.9717C35.1429 26.165 35.5823 26.2617 36.0921 26.2617C36.6136 26.2617 37.0618 26.1416 37.4368 25.9014C37.8177 25.6553 38.1839 25.2158 38.5355 24.583L39.1507 24.9609ZM37.2083 21.6562C37.2083 21.3281 37.179 20.9766 37.1204 20.6016C37.0677 20.2266 36.9798 19.9131 36.8568 19.6611C36.722 19.3916 36.5374 19.1719 36.303 19.002C36.0687 18.832 35.7669 18.7471 35.3978 18.7471C34.7825 18.7471 34.2698 19.0049 33.8597 19.5205C33.4554 20.0303 33.2357 20.7422 33.2005 21.6562H37.2083Z" fill="#BE8FED"/>
<path d="M48.5416 26.8418C48.2663 26.9414 48.0231 27.0205 47.8121 27.0791C47.6071 27.1436 47.3727 27.1758 47.109 27.1758C46.652 27.1758 46.2858 27.0703 46.0104 26.8594C45.7409 26.6426 45.568 26.3291 45.4918 25.9189H45.4391C45.0582 26.3408 44.6481 26.6631 44.2086 26.8857C43.775 27.1084 43.2506 27.2197 42.6354 27.2197C41.985 27.2197 41.4489 27.0205 41.027 26.6221C40.611 26.2236 40.403 25.7021 40.403 25.0576C40.403 24.7236 40.4498 24.4248 40.5436 24.1611C40.6373 23.8975 40.778 23.6602 40.9655 23.4492C41.112 23.2734 41.3053 23.1182 41.5455 22.9834C41.7858 22.8428 42.0114 22.7314 42.2223 22.6494C42.486 22.5498 43.0192 22.3652 43.8219 22.0957C44.6305 21.8262 45.1754 21.6152 45.4567 21.4629V20.5928C45.4567 20.5166 45.4391 20.3701 45.4039 20.1533C45.3746 19.9365 45.3073 19.7314 45.2018 19.5381C45.0846 19.3213 44.9176 19.1338 44.7008 18.9756C44.4899 18.8115 44.1881 18.7295 43.7955 18.7295C43.526 18.7295 43.2741 18.7764 43.0397 18.8701C42.8112 18.958 42.65 19.0518 42.5563 19.1514C42.5563 19.2686 42.5827 19.4414 42.6354 19.6699C42.694 19.8984 42.7233 20.1094 42.7233 20.3027C42.7233 20.5078 42.6295 20.6953 42.442 20.8652C42.2604 21.0352 42.0055 21.1201 41.6774 21.1201C41.3844 21.1201 41.1676 21.0176 41.027 20.8125C40.8922 20.6016 40.8248 20.3672 40.8248 20.1094C40.8248 19.8398 40.9186 19.582 41.1061 19.3359C41.2995 19.0898 41.5485 18.8701 41.8532 18.6768C42.1168 18.5127 42.4362 18.375 42.8112 18.2637C43.1862 18.1465 43.5524 18.0879 43.9098 18.0879C44.402 18.0879 44.8297 18.123 45.193 18.1934C45.5621 18.2578 45.8961 18.4014 46.195 18.624C46.4938 18.8408 46.7194 19.1367 46.8717 19.5117C47.0299 19.8809 47.109 20.3584 47.109 20.9443C47.109 21.7822 47.1002 22.5264 47.0827 23.1768C47.0651 23.8213 47.0563 24.5273 47.0563 25.2949C47.0563 25.5234 47.0944 25.7051 47.1705 25.8398C47.2526 25.9746 47.3756 26.0889 47.5397 26.1826C47.6276 26.2354 47.7653 26.2646 47.9528 26.2705C48.1461 26.2764 48.3424 26.2793 48.5416 26.2793V26.8418ZM45.4743 22.2012C44.9762 22.3477 44.5397 22.4912 44.1647 22.6318C43.7897 22.7725 43.4411 22.9482 43.1188 23.1592C42.8258 23.3584 42.5944 23.5957 42.4245 23.8711C42.2545 24.1406 42.1696 24.4629 42.1696 24.8379C42.1696 25.3242 42.2955 25.6816 42.5475 25.9102C42.8053 26.1387 43.1305 26.2529 43.5231 26.2529C43.9391 26.2529 44.3053 26.1533 44.6217 25.9541C44.9381 25.749 45.2047 25.5088 45.4215 25.2334L45.4743 22.2012Z" fill="#BE8FED"/>
<path d="M59.0752 26.8418L56.0517 27.0352L55.9199 26.9121V26.1035L55.8496 26.0859C55.5449 26.4258 55.167 26.7041 54.7158 26.9209C54.2705 27.1377 53.8105 27.2461 53.3359 27.2461C52.8437 27.2461 52.3662 27.1377 51.9033 26.9209C51.4463 26.6982 51.0478 26.3877 50.708 25.9893C50.3623 25.585 50.0869 25.0986 49.8818 24.5303C49.6826 23.9619 49.583 23.335 49.583 22.6494C49.583 22.0225 49.6914 21.4277 49.9082 20.8652C50.125 20.3027 50.4238 19.8105 50.8046 19.3887C51.1621 18.9961 51.5986 18.6826 52.1142 18.4482C52.6357 18.2139 53.166 18.0967 53.705 18.0967C54.1093 18.0967 54.5048 18.1494 54.8916 18.2549C55.2841 18.3545 55.6211 18.4834 55.9023 18.6416V15.627C55.9023 15.3809 55.8613 15.1582 55.7793 14.959C55.6972 14.7539 55.583 14.5986 55.4365 14.4932C55.2724 14.3818 55.0498 14.3027 54.7685 14.2559C54.4931 14.2031 54.1943 14.165 53.872 14.1416V13.5967L57.414 13.3945L57.5459 13.5264V25.2158C57.5459 25.4209 57.5839 25.5967 57.6601 25.7432C57.7421 25.8838 57.8593 26.0039 58.0117 26.1035C58.123 26.1738 58.2841 26.2178 58.4951 26.2354C58.706 26.2529 58.8994 26.2646 59.0752 26.2705V26.8418ZM55.9023 25.3213V20.25C55.8554 20.0977 55.7793 19.9336 55.6738 19.7578C55.5683 19.582 55.4365 19.4209 55.2783 19.2744C55.1084 19.1279 54.9091 19.0078 54.6806 18.9141C54.4521 18.8145 54.1855 18.7646 53.8808 18.7646C53.5293 18.7646 53.2041 18.8555 52.9052 19.0371C52.6123 19.2188 52.3515 19.4795 52.123 19.8193C51.9062 20.1475 51.7334 20.5664 51.6045 21.0762C51.4814 21.5801 51.4199 22.1396 51.4199 22.7549C51.4199 23.2471 51.4668 23.6953 51.5605 24.0996C51.6543 24.498 51.8125 24.8701 52.0351 25.2158C52.2402 25.5439 52.5009 25.8076 52.8173 26.0068C53.1396 26.2061 53.5205 26.3057 53.9599 26.3057C54.4287 26.3057 54.8154 26.2031 55.1201 25.998C55.4306 25.793 55.6914 25.5674 55.9023 25.3213Z" fill="#BE8FED"/>
<path d="M68.6285 27.2285C67.3746 27.2285 66.3932 26.8125 65.6842 25.9805C64.9752 25.1484 64.6207 24.0322 64.6207 22.6318C64.6207 22.0225 64.7145 21.4541 64.902 20.9268C65.0953 20.3936 65.3736 19.9102 65.7369 19.4766C66.0826 19.0605 66.5162 18.7266 67.0377 18.4746C67.5592 18.2168 68.1275 18.0879 68.7428 18.0879C69.5924 18.0879 70.2838 18.293 70.817 18.7031C71.3502 19.1074 71.6168 19.6611 71.6168 20.3643C71.6168 20.6572 71.5465 20.918 71.4059 21.1465C71.2652 21.3691 71.0338 21.4805 70.7115 21.4805C70.3658 21.4805 70.0963 21.3926 69.9029 21.2168C69.7154 21.041 69.6217 20.8447 69.6217 20.6279C69.6217 20.3643 69.6568 20.0947 69.7271 19.8193C69.7975 19.5381 69.8385 19.333 69.8502 19.2041C69.7447 19.0225 69.5865 18.9023 69.3756 18.8438C69.1705 18.7793 68.9479 18.7471 68.7076 18.7471C68.4264 18.7471 68.1568 18.8086 67.899 18.9316C67.6471 19.0488 67.401 19.2686 67.1607 19.5908C66.9439 19.8838 66.7682 20.2793 66.6334 20.7773C66.4986 21.2754 66.4313 21.8701 66.4313 22.5615C66.4313 23.6514 66.6715 24.542 67.152 25.2334C67.6383 25.9189 68.274 26.2617 69.0592 26.2617C69.6275 26.2617 70.1021 26.124 70.483 25.8486C70.8697 25.5732 71.2271 25.1602 71.5553 24.6094L72.1178 24.9785C71.7311 25.6699 71.2213 26.2178 70.5885 26.6221C69.9557 27.0264 69.3023 27.2285 68.6285 27.2285Z" fill="#BE8FED"/>
<path d="M81.1835 26.8418C80.9081 26.9414 80.665 27.0205 80.454 27.0791C80.2489 27.1436 80.0146 27.1758 79.7509 27.1758C79.2939 27.1758 78.9277 27.0703 78.6523 26.8594C78.3827 26.6426 78.2099 26.3291 78.1337 25.9189H78.081C77.7001 26.3408 77.29 26.6631 76.8505 26.8857C76.4169 27.1084 75.8925 27.2197 75.2773 27.2197C74.6269 27.2197 74.0907 27.0205 73.6689 26.6221C73.2529 26.2236 73.0448 25.7021 73.0448 25.0576C73.0448 24.7236 73.0917 24.4248 73.1855 24.1611C73.2792 23.8975 73.4198 23.6602 73.6073 23.4492C73.7538 23.2734 73.9472 23.1182 74.1874 22.9834C74.4277 22.8428 74.6532 22.7314 74.8642 22.6494C75.1279 22.5498 75.6611 22.3652 76.4638 22.0957C77.2724 21.8262 77.8173 21.6152 78.0986 21.4629V20.5928C78.0986 20.5166 78.081 20.3701 78.0458 20.1533C78.0165 19.9365 77.9491 19.7314 77.8437 19.5381C77.7265 19.3213 77.5595 19.1338 77.3427 18.9756C77.1318 18.8115 76.83 18.7295 76.4374 18.7295C76.1679 18.7295 75.9159 18.7764 75.6816 18.8701C75.453 18.958 75.2919 19.0518 75.1982 19.1514C75.1982 19.2686 75.2245 19.4414 75.2773 19.6699C75.3359 19.8984 75.3652 20.1094 75.3652 20.3027C75.3652 20.5078 75.2714 20.6953 75.0839 20.8652C74.9023 21.0352 74.6474 21.1201 74.3193 21.1201C74.0263 21.1201 73.8095 21.0176 73.6689 20.8125C73.5341 20.6016 73.4667 20.3672 73.4667 20.1094C73.4667 19.8398 73.5605 19.582 73.748 19.3359C73.9413 19.0898 74.1904 18.8701 74.495 18.6768C74.7587 18.5127 75.078 18.375 75.453 18.2637C75.828 18.1465 76.1943 18.0879 76.5517 18.0879C77.0439 18.0879 77.4716 18.123 77.8349 18.1934C78.204 18.2578 78.538 18.4014 78.8368 18.624C79.1357 18.8408 79.3613 19.1367 79.5136 19.5117C79.6718 19.8809 79.7509 20.3584 79.7509 20.9443C79.7509 21.7822 79.7421 22.5264 79.7245 23.1768C79.707 23.8213 79.6982 24.5273 79.6982 25.2949C79.6982 25.5234 79.7363 25.7051 79.8124 25.8398C79.8945 25.9746 80.0175 26.0889 80.1816 26.1826C80.2695 26.2354 80.4072 26.2646 80.5947 26.2705C80.788 26.2764 80.9843 26.2793 81.1835 26.2793V26.8418ZM78.1161 22.2012C77.6181 22.3477 77.1816 22.4912 76.8066 22.6318C76.4316 22.7725 76.0829 22.9482 75.7607 23.1592C75.4677 23.3584 75.2363 23.5957 75.0663 23.8711C74.8964 24.1406 74.8114 24.4629 74.8114 24.8379C74.8114 25.3242 74.9374 25.6816 75.1894 25.9102C75.4472 26.1387 75.7724 26.2529 76.165 26.2529C76.581 26.2529 76.9472 26.1533 77.2636 25.9541C77.58 25.749 77.8466 25.5088 78.0634 25.2334L78.1161 22.2012Z" fill="#BE8FED"/>
<path d="M87.9465 22.7549C88.1868 22.9658 88.3713 23.209 88.5002 23.4844C88.6291 23.7598 88.6936 24.0967 88.6936 24.4951C88.6936 25.2979 88.3918 25.9541 87.7883 26.4639C87.1907 26.9736 86.4143 27.2285 85.4592 27.2285C84.9553 27.2285 84.4895 27.1377 84.0618 26.9561C83.6399 26.7744 83.3381 26.6074 83.1565 26.4551L82.9807 27.0264H82.3215L82.2336 24.0117H82.8401C82.887 24.2402 82.9866 24.5068 83.1389 24.8115C83.2912 25.1162 83.4758 25.3916 83.6926 25.6377C83.9211 25.8955 84.1936 26.1123 84.51 26.2881C84.8323 26.4639 85.1926 26.5518 85.591 26.5518C86.1535 26.5518 86.5871 26.4258 86.8918 26.1738C87.1965 25.916 87.3489 25.5498 87.3489 25.0752C87.3489 24.8291 87.2991 24.6182 87.1994 24.4424C87.1057 24.2607 86.9651 24.1025 86.7776 23.9678C86.5842 23.833 86.3469 23.7129 86.0657 23.6074C85.7844 23.4961 85.4709 23.3877 85.1252 23.2822C84.8498 23.2002 84.5422 23.0889 84.2024 22.9482C83.8684 22.8018 83.5813 22.6318 83.341 22.4385C83.0832 22.2334 82.8723 21.9814 82.7082 21.6826C82.5442 21.3838 82.4621 21.0322 82.4621 20.6279C82.4621 19.9189 82.7258 19.3184 83.2532 18.8262C83.7805 18.334 84.4866 18.0879 85.3713 18.0879C85.7112 18.0879 86.0569 18.1318 86.4084 18.2197C86.7659 18.3076 87.0559 18.4131 87.2785 18.5361L87.4807 18.0791H88.1135L88.2453 20.8652H87.6389C87.5159 20.2441 87.2493 19.7402 86.8391 19.3535C86.4348 18.9609 85.9397 18.7646 85.3537 18.7646C84.8733 18.7646 84.4953 18.8848 84.22 19.125C83.9446 19.3652 83.8069 19.6553 83.8069 19.9951C83.8069 20.2588 83.8508 20.4785 83.9387 20.6543C84.0325 20.8301 84.1702 20.9795 84.3518 21.1025C84.5276 21.2197 84.7473 21.3311 85.011 21.4365C85.2805 21.5361 85.6116 21.6504 86.0041 21.7793C86.3909 21.9023 86.7541 22.0459 87.094 22.21C87.4397 22.374 87.7239 22.5557 87.9465 22.7549Z" fill="#BE8FED"/>
<path d="M97.8912 24.9609C97.5279 25.6523 97.0416 26.2031 96.4322 26.6133C95.8228 27.0234 95.1226 27.2285 94.3316 27.2285C93.6343 27.2285 93.022 27.1055 92.4947 26.8594C91.9732 26.6133 91.5425 26.2793 91.2027 25.8574C90.8629 25.4355 90.608 24.9434 90.438 24.3809C90.274 23.8184 90.192 23.2236 90.192 22.5967C90.192 22.0342 90.2798 21.4834 90.4556 20.9443C90.6373 20.3994 90.9009 19.9102 91.2466 19.4766C91.5806 19.0605 91.9937 18.7266 92.4859 18.4746C92.9839 18.2168 93.5406 18.0879 94.1558 18.0879C94.7886 18.0879 95.3306 18.1875 95.7818 18.3867C96.233 18.5859 96.5992 18.8584 96.8804 19.2041C97.15 19.5322 97.3492 19.9189 97.4781 20.3643C97.6129 20.8096 97.6802 21.293 97.6802 21.8145V22.3945H91.941C91.941 22.9629 91.9937 23.4785 92.0992 23.9414C92.2105 24.4043 92.3834 24.8115 92.6177 25.1631C92.8463 25.5029 93.1451 25.7725 93.5142 25.9717C93.8834 26.165 94.3228 26.2617 94.8326 26.2617C95.3541 26.2617 95.8023 26.1416 96.1773 25.9014C96.5582 25.6553 96.9244 25.2158 97.2759 24.583L97.8912 24.9609ZM95.9488 21.6562C95.9488 21.3281 95.9195 20.9766 95.8609 20.6016C95.8082 20.2266 95.7203 19.9131 95.5972 19.6611C95.4625 19.3916 95.2779 19.1719 95.0435 19.002C94.8091 18.832 94.5074 18.7471 94.1382 18.7471C93.523 18.7471 93.0103 19.0049 92.6002 19.5205C92.1959 20.0303 91.9761 20.7422 91.941 21.6562H95.9488Z" fill="#BE8FED"/>
<path d="M109.317 22.7549C109.557 22.9658 109.741 23.209 109.87 23.4844C109.999 23.7598 110.064 24.0967 110.064 24.4951C110.064 25.2979 109.762 25.9541 109.158 26.4639C108.561 26.9736 107.784 27.2285 106.829 27.2285C106.325 27.2285 105.86 27.1377 105.432 26.9561C105.01 26.7744 104.708 26.6074 104.527 26.4551L104.351 27.0264H103.692L103.604 24.0117H104.21C104.257 24.2402 104.357 24.5068 104.509 24.8115C104.661 25.1162 104.846 25.3916 105.063 25.6377C105.291 25.8955 105.564 26.1123 105.88 26.2881C106.202 26.4639 106.563 26.5518 106.961 26.5518C107.524 26.5518 107.957 26.4258 108.262 26.1738C108.567 25.916 108.719 25.5498 108.719 25.0752C108.719 24.8291 108.669 24.6182 108.57 24.4424C108.476 24.2607 108.335 24.1025 108.148 23.9678C107.954 23.833 107.717 23.7129 107.436 23.6074C107.154 23.4961 106.841 23.3877 106.495 23.2822C106.22 23.2002 105.912 23.0889 105.572 22.9482C105.238 22.8018 104.951 22.6318 104.711 22.4385C104.453 22.2334 104.242 21.9814 104.078 21.6826C103.914 21.3838 103.832 21.0322 103.832 20.6279C103.832 19.9189 104.096 19.3184 104.623 18.8262C105.151 18.334 105.857 18.0879 106.741 18.0879C107.081 18.0879 107.427 18.1318 107.779 18.2197C108.136 18.3076 108.426 18.4131 108.649 18.5361L108.851 18.0791H109.484L109.615 20.8652H109.009C108.886 20.2441 108.619 19.7402 108.209 19.3535C107.805 18.9609 107.31 18.7646 106.724 18.7646C106.243 18.7646 105.865 18.8848 105.59 19.125C105.315 19.3652 105.177 19.6553 105.177 19.9951C105.177 20.2588 105.221 20.4785 105.309 20.6543C105.403 20.8301 105.54 20.9795 105.722 21.1025C105.898 21.2197 106.117 21.3311 106.381 21.4365C106.651 21.5361 106.982 21.6504 107.374 21.7793C107.761 21.9023 108.124 22.0459 108.464 22.21C108.81 22.374 109.094 22.5557 109.317 22.7549Z" fill="#BE8FED"/>
<path d="M116.915 26.6221C116.534 26.7803 116.173 26.9121 115.834 27.0176C115.494 27.1289 115.078 27.1846 114.585 27.1846C113.859 27.1846 113.346 27.0029 113.047 26.6396C112.754 26.2705 112.608 25.752 112.608 25.084V19.2129H111.043V18.3691H112.643V15.6709H114.243V18.3691H116.73V19.2129H114.26V24.0557C114.26 24.4189 114.272 24.7236 114.295 24.9697C114.325 25.21 114.389 25.4209 114.489 25.6025C114.583 25.7725 114.723 25.9014 114.911 25.9893C115.098 26.0771 115.35 26.1211 115.667 26.1211C115.813 26.1211 116.027 26.1094 116.308 26.0859C116.595 26.0566 116.797 26.0215 116.915 25.9805V26.6221Z" fill="#BE8FED"/>
<path d="M127.255 26.8418L124.433 27.0352L124.302 26.9121V25.8135H124.249C124.108 25.96 123.95 26.1182 123.774 26.2881C123.598 26.4521 123.396 26.6016 123.168 26.7363C122.904 26.8945 122.649 27.0146 122.403 27.0967C122.157 27.1787 121.808 27.2197 121.357 27.2197C120.59 27.2197 120.004 26.9707 119.599 26.4727C119.201 25.9688 119.002 25.2393 119.002 24.2842V20.1357C119.002 19.9248 118.961 19.749 118.879 19.6084C118.803 19.4619 118.688 19.3359 118.536 19.2305C118.431 19.1602 118.299 19.1104 118.14 19.0811C117.982 19.0459 117.815 19.0225 117.639 19.0107V18.4395L120.531 18.2285L120.663 18.3516V24.3721C120.663 24.999 120.804 25.4707 121.085 25.7871C121.366 26.1035 121.703 26.2617 122.096 26.2617C122.418 26.2617 122.705 26.2119 122.957 26.1123C123.209 26.0127 123.42 25.8955 123.59 25.7607C123.748 25.6377 123.886 25.5088 124.003 25.374C124.126 25.2334 124.22 25.1045 124.284 24.9873V20.0742C124.284 19.8809 124.243 19.7109 124.161 19.5645C124.079 19.4121 123.965 19.2832 123.818 19.1777C123.713 19.1074 123.555 19.0664 123.344 19.0547C123.139 19.0371 122.907 19.0225 122.649 19.0107V18.4395L125.796 18.2285L125.928 18.3516V25.2334C125.928 25.4326 125.969 25.6025 126.051 25.7432C126.133 25.8838 126.247 26.0039 126.393 26.1035C126.499 26.168 126.625 26.2119 126.771 26.2354C126.918 26.2529 127.079 26.2646 127.255 26.2705V26.8418Z" fill="#BE8FED"/>
<path d="M137.99 26.8418L134.967 27.0352L134.835 26.9121V26.1035L134.765 26.0859C134.46 26.4258 134.082 26.7041 133.631 26.9209C133.186 27.1377 132.726 27.2461 132.251 27.2461C131.759 27.2461 131.281 27.1377 130.819 26.9209C130.361 26.6982 129.963 26.3877 129.623 25.9893C129.277 25.585 129.002 25.0986 128.797 24.5303C128.598 23.9619 128.498 23.335 128.498 22.6494C128.498 22.0225 128.607 21.4277 128.823 20.8652C129.04 20.3027 129.339 19.8105 129.72 19.3887C130.077 18.9961 130.514 18.6826 131.029 18.4482C131.551 18.2139 132.081 18.0967 132.62 18.0967C133.025 18.0967 133.42 18.1494 133.807 18.2549C134.199 18.3545 134.536 18.4834 134.818 18.6416V15.627C134.818 15.3809 134.777 15.1582 134.694 14.959C134.612 14.7539 134.498 14.5986 134.352 14.4932C134.188 14.3818 133.965 14.3027 133.684 14.2559C133.408 14.2031 133.11 14.165 132.787 14.1416V13.5967L136.329 13.3945L136.461 13.5264V25.2158C136.461 25.4209 136.499 25.5967 136.575 25.7432C136.657 25.8838 136.775 26.0039 136.927 26.1035C137.038 26.1738 137.199 26.2178 137.41 26.2354C137.621 26.2529 137.815 26.2646 137.99 26.2705V26.8418ZM134.818 25.3213V20.25C134.771 20.0977 134.694 19.9336 134.589 19.7578C134.484 19.582 134.352 19.4209 134.194 19.2744C134.024 19.1279 133.824 19.0078 133.596 18.9141C133.367 18.8145 133.101 18.7646 132.796 18.7646C132.444 18.7646 132.119 18.8555 131.82 19.0371C131.527 19.2188 131.267 19.4795 131.038 19.8193C130.821 20.1475 130.649 20.5664 130.52 21.0762C130.397 21.5801 130.335 22.1396 130.335 22.7549C130.335 23.2471 130.382 23.6953 130.476 24.0996C130.569 24.498 130.728 24.8701 130.95 25.2158C131.155 25.5439 131.416 25.8076 131.733 26.0068C132.055 26.2061 132.436 26.3057 132.875 26.3057C133.344 26.3057 133.731 26.2031 134.035 25.998C134.346 25.793 134.607 25.5674 134.818 25.3213Z" fill="#BE8FED"/>
<path d="M138.355 29.8301C138.355 29.5371 138.434 29.2969 138.592 29.1094C138.756 28.9277 138.958 28.8369 139.199 28.8369C139.386 28.8369 139.547 28.8721 139.682 28.9424C139.817 29.0127 139.937 29.1035 140.042 29.2148C140.13 29.3027 140.224 29.4229 140.324 29.5752C140.423 29.7275 140.502 29.8535 140.561 29.9531C140.854 29.7949 141.203 29.3818 141.607 28.7139C142.017 28.0459 142.313 27.46 142.495 26.9561C141.938 25.5674 141.434 24.3252 140.983 23.2295C140.532 22.1338 140.06 21 139.568 19.8281C139.457 19.5586 139.269 19.3506 139.005 19.2041C138.742 19.0518 138.478 18.9551 138.214 18.9141V18.334H142.169V18.9492C141.994 18.9551 141.783 18.9932 141.537 19.0635C141.291 19.1279 141.167 19.2041 141.167 19.292C141.167 19.3271 141.179 19.3857 141.203 19.4678C141.232 19.5498 141.264 19.6348 141.299 19.7227C141.522 20.3027 141.862 21.1406 142.319 22.2363C142.776 23.3262 143.13 24.1992 143.382 24.8555C143.646 24.2285 143.918 23.5811 144.2 22.9131C144.487 22.2393 144.806 21.4453 145.158 20.5312C145.199 20.4199 145.257 20.2676 145.333 20.0742C145.41 19.875 145.448 19.7051 145.448 19.5645C145.448 19.4121 145.313 19.2715 145.043 19.1426C144.78 19.0078 144.528 18.9258 144.288 18.8965V18.334H147.504V18.8789C147.329 18.9082 147.097 19.0107 146.81 19.1865C146.523 19.3564 146.309 19.5996 146.168 19.916C145.471 21.5332 144.85 23.0068 144.305 24.3369C143.766 25.667 143.356 26.6455 143.075 27.2725C142.706 28.0928 142.374 28.7314 142.082 29.1885C141.794 29.6514 141.513 30.0146 141.238 30.2783C140.968 30.5244 140.722 30.6885 140.499 30.7705C140.283 30.8584 140.057 30.9023 139.823 30.9023C139.366 30.9023 139.005 30.7939 138.742 30.5771C138.484 30.3604 138.355 30.1113 138.355 29.8301Z" fill="#BE8FED"/>
<defs>
<linearGradient id="paint0_linear_1032_34336" x1="7.28592e-06" y1="42" x2="0.933307" y2="-17.0242" gradientUnits="userSpaceOnUse">
<stop stop-color="white" stop-opacity="0.4"/>
<stop offset="1" stop-color="white" stop-opacity="0.03"/>
</linearGradient>
<radialGradient id="paint1_radial_1032_34336" cx="0" cy="0" r="1" gradientUnits="userSpaceOnUse" gradientTransform="translate(174.948 1.50969e-06) rotate(165.658) scale(218.592 91.8403)">
<stop stop-color="white" stop-opacity="0.3"/>
<stop offset="1" stop-color="white" stop-opacity="0"/>
</radialGradient>
</defs>
</svg>
