<svg width="17" height="17" viewBox="0 0 17 17" fill="none" xmlns="http://www.w3.org/2000/svg">
<path d="M7.88063 16.1598C7.60063 14.4398 6.36063 12.2998 4.04063 10.5398C2.88063 9.6598 1.74063 9.0998 0.640625 8.8798V8.0398C2.86063 7.5398 5.06063 5.9798 6.50063 3.9398C7.22063 2.9198 7.68063 1.8798 7.88063 0.799805H8.72062C9.06063 2.8398 10.6606 5.0598 12.7606 6.5598C13.8006 7.2998 14.8806 7.7998 16.0006 8.0398V8.8798C13.7406 9.3398 11.1606 11.2998 9.90063 13.3198C9.26063 14.3398 8.86062 15.2798 8.72062 16.1598H7.88063ZM8.16063 15.6798H8.44063C8.64063 13.5998 9.26063 11.3398 9.96063 10.1598C11.3006 9.3998 13.7206 8.7598 15.4806 8.6398V8.3598C13.7206 8.2198 11.2006 7.5398 9.96063 6.7998C9.26063 5.5998 8.64063 3.3998 8.44063 1.3198H8.16063C8.00063 3.1998 7.40063 5.4598 6.64062 6.7998C5.36062 7.5398 2.96063 8.2198 1.12063 8.3598V8.6398C2.94063 8.7798 5.28063 9.3998 6.64062 10.1598C7.38063 11.4598 8.00063 13.7598 8.16063 15.6798Z" fill="#F7FAFF" fill-opacity="0.8"/>
</svg>
