<svg width="52" height="52" viewBox="0 0 52 52" fill="none" xmlns="http://www.w3.org/2000/svg">
<g filter="url(#filter0_i_1050_57633)">
<path d="M0 26C0 11.6406 11.6406 0 26 0C40.3594 0 52 11.6406 52 26C52 40.3594 40.3594 52 26 52C11.6406 52 0 40.3594 0 26Z" fill="url(#paint0_radial_1050_57633)" fill-opacity="0.12"/>
</g>
<path fill-rule="evenodd" clip-rule="evenodd" d="M0.5 26C0.5 40.0833 11.9167 51.5 26 51.5C40.0833 51.5 51.5 40.0833 51.5 26C51.5 11.9167 40.0833 0.5 26 0.5C11.9167 0.5 0.5 11.9167 0.5 26ZM26 0C11.6406 0 0 11.6406 0 26C0 40.3594 11.6406 52 26 52C40.3594 52 52 40.3594 52 26C52 11.6406 40.3594 0 26 0Z" fill="#8FB1ED" fill-opacity="0.16"/>
<path d="M32.5918 15.7266V16.1367C30.8242 16.5859 29.4033 17.167 28.3291 17.8799C27.2646 18.583 26.4199 19.4424 25.7949 20.458C25.1797 21.4639 24.7012 22.7139 24.3594 24.208C24.7891 23.915 25.1455 23.7246 25.4287 23.6367C26.0635 23.4414 26.7031 23.3438 27.3477 23.3438C28.832 23.3438 30.0674 23.8857 31.0537 24.9697C32.0498 26.0439 32.5479 27.5137 32.5479 29.3789C32.5479 30.6875 32.2793 31.8887 31.7422 32.9824C31.2051 34.0762 30.4434 34.9209 29.457 35.5166C28.4707 36.1123 27.416 36.4102 26.293 36.4102C25.0723 36.4102 23.9443 36.0781 22.9092 35.4141C21.874 34.7402 21.0635 33.7588 20.4775 32.4697C19.9014 31.1807 19.6133 29.7793 19.6133 28.2656C19.6133 26.0391 20.1455 23.9688 21.21 22.0547C22.2842 20.1309 23.8027 18.6025 25.7656 17.4697C27.7383 16.3271 30.0137 15.7461 32.5918 15.7266ZM24.1689 25.3945C24.0908 26.7422 24.0518 27.7285 24.0518 28.3535C24.0518 29.7012 24.1787 31.0049 24.4326 32.2646C24.6963 33.5244 25.0527 34.4082 25.502 34.916C25.8242 35.2773 26.2051 35.458 26.6445 35.458C27.0938 35.458 27.4941 35.1992 27.8457 34.6816C28.1973 34.1543 28.373 33.0898 28.373 31.4883C28.373 28.793 28.0459 26.9326 27.3916 25.9072C26.9717 25.2432 26.4053 24.9111 25.6924 24.9111C25.3018 24.9111 24.7939 25.0723 24.1689 25.3945Z" fill="#8FB1ED"/>
<defs>
<filter id="filter0_i_1050_57633" x="0" y="0" width="58" height="58" filterUnits="userSpaceOnUse" color-interpolation-filters="sRGB">
<feFlood flood-opacity="0" result="BackgroundImageFix"/>
<feBlend mode="normal" in="SourceGraphic" in2="BackgroundImageFix" result="shape"/>
<feColorMatrix in="SourceAlpha" type="matrix" values="0 0 0 0 0 0 0 0 0 0 0 0 0 0 0 0 0 0 127 0" result="hardAlpha"/>
<feOffset dx="6" dy="6"/>
<feGaussianBlur stdDeviation="4.5"/>
<feComposite in2="hardAlpha" operator="arithmetic" k2="-1" k3="1"/>
<feColorMatrix type="matrix" values="0 0 0 0 0.560784 0 0 0 0 0.694118 0 0 0 0 0.929412 0 0 0 0.09 0"/>
<feBlend mode="normal" in2="shape" result="effect1_innerShadow_1050_57633"/>
</filter>
<radialGradient id="paint0_radial_1050_57633" cx="0" cy="0" r="1" gradientUnits="userSpaceOnUse" gradientTransform="translate(26 26) rotate(105.313) scale(43.546)">
<stop stop-color="#8FB1ED"/>
<stop offset="1" stop-color="#1B222F"/>
</radialGradient>
</defs>
</svg>
