<svg width="52" height="52" viewBox="0 0 52 52" fill="none" xmlns="http://www.w3.org/2000/svg">
<g filter="url(#filter0_i_1050_57621)">
<path d="M0 26C0 11.6406 11.6406 0 26 0C40.3594 0 52 11.6406 52 26C52 40.3594 40.3594 52 26 52C11.6406 52 0 40.3594 0 26Z" fill="url(#paint0_radial_1050_57621)" fill-opacity="0.12"/>
</g>
<path fill-rule="evenodd" clip-rule="evenodd" d="M0.5 26C0.5 40.0833 11.9167 51.5 26 51.5C40.0833 51.5 51.5 40.0833 51.5 26C51.5 11.9167 40.0833 0.5 26 0.5C11.9167 0.5 0.5 11.9167 0.5 26ZM26 0C11.6406 0 0 11.6406 0 26C0 40.3594 11.6406 52 26 52C40.3594 52 52 40.3594 52 26C52 11.6406 40.3594 0 26 0Z" fill="#8FB1ED" fill-opacity="0.16"/>
<path d="M22.9395 26.0391V25.5264C24.0527 25.2041 24.8242 24.9062 25.2539 24.6328C25.6836 24.3496 26.0547 23.9248 26.3672 23.3584C26.6797 22.7822 26.8359 22.2012 26.8359 21.6152C26.8359 20.8047 26.5381 20.1113 25.9424 19.5352C25.3564 18.9492 24.624 18.6562 23.7451 18.6562C22.3779 18.6562 21.2158 19.3789 20.2588 20.8242L19.7168 20.6338C20.4199 19.0029 21.3184 17.7773 22.4121 16.957C23.5156 16.1367 24.7412 15.7266 26.0889 15.7266C27.4658 15.7266 28.5986 16.1465 29.4873 16.9863C30.3857 17.8262 30.835 18.8076 30.835 19.9307C30.835 20.6631 30.625 21.3711 30.2051 22.0547C29.7949 22.7285 29.1455 23.3242 28.2568 23.8418C29.3994 24.3984 30.2686 25.0869 30.8643 25.9072C31.4697 26.7178 31.7725 27.7383 31.7725 28.9688C31.7725 31.0391 31.0205 32.8018 29.5166 34.2568C28.0225 35.7021 26.0156 36.4248 23.4961 36.4248C21.8164 36.4248 20.5908 36.1465 19.8193 35.5898C19.2627 35.1992 18.9844 34.6963 18.9844 34.0811C18.9844 33.6318 19.1455 33.251 19.4678 32.9385C19.79 32.6162 20.1611 32.4551 20.5811 32.4551C20.9033 32.4551 21.2061 32.5234 21.4893 32.6602C21.6455 32.7383 22.1973 33.168 23.1445 33.9492C24.1016 34.7207 24.9951 35.1064 25.8252 35.1064C26.5479 35.1064 27.168 34.8232 27.6855 34.2568C28.2031 33.6807 28.4619 32.9531 28.4619 32.0742C28.4619 30.7363 27.9932 29.5059 27.0557 28.3828C26.1182 27.25 24.7461 26.4688 22.9395 26.0391Z" fill="#8FB1ED"/>
<defs>
<filter id="filter0_i_1050_57621" x="0" y="0" width="58" height="58" filterUnits="userSpaceOnUse" color-interpolation-filters="sRGB">
<feFlood flood-opacity="0" result="BackgroundImageFix"/>
<feBlend mode="normal" in="SourceGraphic" in2="BackgroundImageFix" result="shape"/>
<feColorMatrix in="SourceAlpha" type="matrix" values="0 0 0 0 0 0 0 0 0 0 0 0 0 0 0 0 0 0 127 0" result="hardAlpha"/>
<feOffset dx="6" dy="6"/>
<feGaussianBlur stdDeviation="4.5"/>
<feComposite in2="hardAlpha" operator="arithmetic" k2="-1" k3="1"/>
<feColorMatrix type="matrix" values="0 0 0 0 0.560784 0 0 0 0 0.694118 0 0 0 0 0.929412 0 0 0 0.09 0"/>
<feBlend mode="normal" in2="shape" result="effect1_innerShadow_1050_57621"/>
</filter>
<radialGradient id="paint0_radial_1050_57621" cx="0" cy="0" r="1" gradientUnits="userSpaceOnUse" gradientTransform="translate(26 26) rotate(105.313) scale(43.546)">
<stop stop-color="#8FB1ED"/>
<stop offset="1" stop-color="#1B222F"/>
</radialGradient>
</defs>
</svg>
