<svg width="52" height="52" viewBox="0 0 52 52" fill="none" xmlns="http://www.w3.org/2000/svg">
<g filter="url(#filter0_i_1050_57617)">
<path d="M0 26C0 11.6406 11.6406 0 26 0C40.3594 0 52 11.6406 52 26C52 40.3594 40.3594 52 26 52C11.6406 52 0 40.3594 0 26Z" fill="url(#paint0_radial_1050_57617)" fill-opacity="0.12"/>
</g>
<path fill-rule="evenodd" clip-rule="evenodd" d="M0.5 26C0.5 40.0833 11.9167 51.5 26 51.5C40.0833 51.5 51.5 40.0833 51.5 26C51.5 11.9167 40.0833 0.5 26 0.5C11.9167 0.5 0.5 11.9167 0.5 26ZM26 0C11.6406 0 0 11.6406 0 26C0 40.3594 11.6406 52 26 52C40.3594 52 52 40.3594 52 26C52 11.6406 40.3594 0 26 0Z" fill="#8FB1ED" fill-opacity="0.16"/>
<path d="M30.9238 36H19.2344V35.6777C22.8184 31.4102 24.9912 28.5391 25.7529 27.0645C26.5244 25.5898 26.9102 24.1494 26.9102 22.7432C26.9102 21.7178 26.5928 20.8682 25.958 20.1943C25.3232 19.5107 24.5469 19.1689 23.6289 19.1689C22.125 19.1689 20.958 19.9209 20.1279 21.4248L19.5859 21.2344C20.1133 19.3594 20.9141 17.9727 21.9883 17.0742C23.0625 16.1758 24.3027 15.7266 25.709 15.7266C26.7148 15.7266 27.6328 15.9609 28.4629 16.4297C29.293 16.8984 29.9424 17.543 30.4111 18.3633C30.8799 19.1738 31.1143 19.9355 31.1143 20.6484C31.1143 21.9473 30.7529 23.2656 30.0303 24.6035C29.0439 26.4102 26.8906 28.9297 23.5703 32.1621H27.8623C28.917 32.1621 29.6006 32.1182 29.9131 32.0303C30.2354 31.9424 30.499 31.7959 30.7041 31.5908C30.9092 31.376 31.1777 30.9316 31.5098 30.2578H32.0371L30.9238 36Z" fill="#8FB1ED"/>
<defs>
<filter id="filter0_i_1050_57617" x="0" y="0" width="58" height="58" filterUnits="userSpaceOnUse" color-interpolation-filters="sRGB">
<feFlood flood-opacity="0" result="BackgroundImageFix"/>
<feBlend mode="normal" in="SourceGraphic" in2="BackgroundImageFix" result="shape"/>
<feColorMatrix in="SourceAlpha" type="matrix" values="0 0 0 0 0 0 0 0 0 0 0 0 0 0 0 0 0 0 127 0" result="hardAlpha"/>
<feOffset dx="6" dy="6"/>
<feGaussianBlur stdDeviation="4.5"/>
<feComposite in2="hardAlpha" operator="arithmetic" k2="-1" k3="1"/>
<feColorMatrix type="matrix" values="0 0 0 0 0.560784 0 0 0 0 0.694118 0 0 0 0 0.929412 0 0 0 0.09 0"/>
<feBlend mode="normal" in2="shape" result="effect1_innerShadow_1050_57617"/>
</filter>
<radialGradient id="paint0_radial_1050_57617" cx="0" cy="0" r="1" gradientUnits="userSpaceOnUse" gradientTransform="translate(26 26) rotate(105.313) scale(43.546)">
<stop stop-color="#8FB1ED"/>
<stop offset="1" stop-color="#1B222F"/>
</radialGradient>
</defs>
</svg>
